<svg width="60" height="30" viewBox="0 0 60 30" fill="none" xmlns="http://www.w3.org/2000/svg">
<path d="M5.57812 25.2422H2.49609L1.91016 27H0.0410156L3.2168 18.4688H4.8457L8.03906 27H6.16992L5.57812 25.2422ZM2.9707 23.8184H5.10352L4.03125 20.625L2.9707 23.8184ZM8.46094 23.7832C8.46094 22.7949 8.68164 22.0078 9.12305 21.4219C9.56836 20.8359 10.1758 20.543 10.9453 20.543C11.5625 20.543 12.0723 20.7734 12.4746 21.2344V18H14.1738V27H12.6445L12.5625 26.3262C12.1406 26.8535 11.5977 27.1172 10.9336 27.1172C10.1875 27.1172 9.58789 26.8242 9.13477 26.2383C8.68555 25.6484 8.46094 24.8301 8.46094 23.7832ZM10.1543 23.9062C10.1543 24.5 10.2578 24.9551 10.4648 25.2715C10.6719 25.5879 10.9727 25.7461 11.3672 25.7461C11.8906 25.7461 12.2598 25.5254 12.4746 25.084V22.582C12.2637 22.1406 11.8984 21.9199 11.3789 21.9199C10.5625 21.9199 10.1543 22.582 10.1543 23.9062ZM15.2227 23.7715C15.2227 23.1426 15.3438 22.582 15.5859 22.0898C15.8281 21.5977 16.1758 21.2168 16.6289 20.9473C17.0859 20.6777 17.6152 20.543 18.2168 20.543C19.0723 20.543 19.7695 20.8047 20.3086 21.3281C20.8516 21.8516 21.1543 22.5625 21.2168 23.4609L21.2285 23.8945C21.2285 24.8672 20.957 25.6484 20.4141 26.2383C19.8711 26.8242 19.1426 27.1172 18.2285 27.1172C17.3145 27.1172 16.584 26.8242 16.0371 26.2383C15.4941 25.6523 15.2227 24.8555 15.2227 23.8477V23.7715ZM16.916 23.8945C16.916 24.4961 17.0293 24.957 17.2559 25.2773C17.4824 25.5938 17.8066 25.752 18.2285 25.752C18.6387 25.752 18.959 25.5957 19.1895 25.2832C19.4199 24.9668 19.5352 24.4629 19.5352 23.7715C19.5352 23.1816 19.4199 22.7246 19.1895 22.4004C18.959 22.0762 18.6348 21.9141 18.2168 21.9141C17.8027 21.9141 17.4824 22.0762 17.2559 22.4004C17.0293 22.7207 16.916 23.2188 16.916 23.8945ZM27.9785 23.8887C27.9785 24.8652 27.7559 25.6484 27.3105 26.2383C26.8691 26.8242 26.2715 27.1172 25.5176 27.1172C24.877 27.1172 24.3594 26.8945 23.9648 26.4492V29.4375H22.2715V20.6602H23.8418L23.9004 21.2812C24.3105 20.7891 24.8457 20.543 25.5059 20.543C26.2871 20.543 26.8945 20.832 27.3281 21.4102C27.7617 21.9883 27.9785 22.7852 27.9785 23.8008V23.8887ZM26.2852 23.7656C26.2852 23.1758 26.1797 22.7207 25.9688 22.4004C25.7617 22.0801 25.459 21.9199 25.0605 21.9199C24.5293 21.9199 24.1641 22.123 23.9648 22.5293V25.125C24.1719 25.543 24.541 25.752 25.0723 25.752C25.8809 25.752 26.2852 25.0898 26.2852 23.7656ZM31.0605 19.1016V20.6602H32.1445V21.9023H31.0605V25.0664C31.0605 25.3008 31.1055 25.4688 31.1953 25.5703C31.2852 25.6719 31.457 25.7227 31.7109 25.7227C31.8984 25.7227 32.0645 25.709 32.209 25.6816V26.9648C31.877 27.0664 31.5352 27.1172 31.1836 27.1172C29.9961 27.1172 29.3906 26.5176 29.3672 25.3184V21.9023H28.4414V20.6602H29.3672V19.1016H31.0605ZM39.8965 24.1582C39.8301 25.0762 39.4902 25.7988 38.877 26.3262C38.2676 26.8535 37.4629 27.1172 36.4629 27.1172C35.3691 27.1172 34.5078 26.75 33.8789 26.0156C33.2539 25.2773 32.9414 24.2656 32.9414 22.9805V22.459C32.9414 21.6387 33.0859 20.916 33.375 20.291C33.6641 19.666 34.0762 19.1875 34.6113 18.8555C35.1504 18.5195 35.7754 18.3516 36.4863 18.3516C37.4707 18.3516 38.2637 18.6152 38.8652 19.1426C39.4668 19.6699 39.8145 20.4102 39.9082 21.3633H38.1504C38.1074 20.8125 37.9531 20.4141 37.6875 20.168C37.4258 19.918 37.0254 19.793 36.4863 19.793C35.9004 19.793 35.4609 20.0039 35.168 20.4258C34.8789 20.8438 34.7305 21.4941 34.7227 22.377V23.0215C34.7227 23.9434 34.8613 24.6172 35.1387 25.043C35.4199 25.4688 35.8613 25.6816 36.4629 25.6816C37.0059 25.6816 37.4102 25.5586 37.6758 25.3125C37.9453 25.0625 38.0996 24.6777 38.1387 24.1582H39.8965ZM44.6133 27C44.5352 26.8477 44.4785 26.6582 44.4434 26.4316C44.0332 26.8887 43.5 27.1172 42.8438 27.1172C42.2227 27.1172 41.707 26.9375 41.2969 26.5781C40.8906 26.2188 40.6875 25.7656 40.6875 25.2188C40.6875 24.5469 40.9355 24.0312 41.4316 23.6719C41.9316 23.3125 42.6523 23.1309 43.5938 23.127H44.373V22.7637C44.373 22.4707 44.2969 22.2363 44.1445 22.0605C43.9961 21.8848 43.7598 21.7969 43.4355 21.7969C43.1504 21.7969 42.9258 21.8652 42.7617 22.002C42.6016 22.1387 42.5215 22.3262 42.5215 22.5645H40.8281C40.8281 22.1973 40.9414 21.8574 41.168 21.5449C41.3945 21.2324 41.7148 20.9883 42.1289 20.8125C42.543 20.6328 43.0078 20.543 43.5234 20.543C44.3047 20.543 44.9238 20.7402 45.3809 21.1348C45.8418 21.5254 46.0723 22.0762 46.0723 22.7871V25.5352C46.0762 26.1367 46.1602 26.5918 46.3242 26.9004V27H44.6133ZM43.2129 25.8223C43.4629 25.8223 43.6934 25.7676 43.9043 25.6582C44.1152 25.5449 44.2715 25.3945 44.373 25.207V24.1172H43.7402C42.8926 24.1172 42.4414 24.4102 42.3867 24.9961L42.3809 25.0957C42.3809 25.3066 42.4551 25.4805 42.6035 25.6172C42.752 25.7539 42.9551 25.8223 43.2129 25.8223ZM50.8066 25.248C50.8066 25.041 50.7031 24.8789 50.4961 24.7617C50.293 24.6406 49.9648 24.5332 49.5117 24.4395C48.0039 24.123 47.25 23.4824 47.25 22.5176C47.25 21.9551 47.4824 21.4863 47.9473 21.1113C48.416 20.7324 49.0273 20.543 49.7812 20.543C50.5859 20.543 51.2285 20.7324 51.709 21.1113C52.1934 21.4902 52.4355 21.9824 52.4355 22.5879H50.7422C50.7422 22.3457 50.6641 22.1465 50.5078 21.9902C50.3516 21.8301 50.1074 21.75 49.7754 21.75C49.4902 21.75 49.2695 21.8145 49.1133 21.9434C48.957 22.0723 48.8789 22.2363 48.8789 22.4355C48.8789 22.623 48.9668 22.7754 49.1426 22.8926C49.3223 23.0059 49.623 23.1055 50.0449 23.1914C50.4668 23.2734 50.8223 23.3672 51.1113 23.4727C52.0059 23.8008 52.4531 24.3691 52.4531 25.1777C52.4531 25.7559 52.2051 26.2246 51.709 26.584C51.2129 26.9395 50.5723 27.1172 49.7871 27.1172C49.2559 27.1172 48.7832 27.0234 48.3691 26.8359C47.959 26.6445 47.6367 26.3848 47.4023 26.0566C47.168 25.7246 47.0508 25.3672 47.0508 24.9844H48.6562C48.6719 25.2852 48.7832 25.5156 48.9902 25.6758C49.1973 25.8359 49.4746 25.916 49.8223 25.916C50.1465 25.916 50.3906 25.8555 50.5547 25.7344C50.7227 25.6094 50.8066 25.4473 50.8066 25.248ZM56.4668 27.1172C55.5371 27.1172 54.7793 26.832 54.1934 26.2617C53.6113 25.6914 53.3203 24.9316 53.3203 23.9824V23.8184C53.3203 23.1816 53.4434 22.6133 53.6895 22.1133C53.9355 21.6094 54.2832 21.2227 54.7324 20.9531C55.1855 20.6797 55.7012 20.543 56.2793 20.543C57.1465 20.543 57.8281 20.8164 58.3242 21.3633C58.8242 21.9102 59.0742 22.6855 59.0742 23.6895V24.3809H55.0371C55.0918 24.7949 55.2559 25.127 55.5293 25.377C55.8066 25.627 56.1562 25.752 56.5781 25.752C57.2305 25.752 57.7402 25.5156 58.1074 25.043L58.9395 25.9746C58.6855 26.334 58.3418 26.6152 57.9082 26.8184C57.4746 27.0176 56.9941 27.1172 56.4668 27.1172ZM56.2734 21.9141C55.9375 21.9141 55.6641 22.0273 55.4531 22.2539C55.2461 22.4805 55.1133 22.8047 55.0547 23.2266H57.4102V23.0918C57.4023 22.7168 57.3008 22.4277 57.1055 22.2246C56.9102 22.0176 56.6328 21.9141 56.2734 21.9141Z" fill="#5FE376"/>
<circle cx="30" cy="8" r="8" fill="#5FE376"/>
<path d="M32.874 8.98434C32.0666 8.00952 31.0461 7.47266 30.0003 7.47266C28.9546 7.47266 27.934 8.00952 27.1267 8.98434C26.401 9.86055 25.9678 10.9648 25.9678 11.9383C25.9678 12.4112 26.1123 12.7714 26.3974 13.0089C26.6788 13.2434 27.0503 13.3227 27.4648 13.3227C27.9058 13.3227 28.3955 13.2328 28.8767 13.1446C29.2971 13.0674 29.6943 12.9946 30.0004 12.9946C30.2645 12.9946 30.637 13.0637 31.0313 13.1369C31.9528 13.308 32.9973 13.5019 33.6007 13.0003C33.8875 12.7618 34.0329 12.4045 34.0329 11.9383C34.0329 10.9648 33.5997 9.86055 32.874 8.98434ZM33.1511 12.4596C32.8014 12.7504 31.8911 12.5814 31.1596 12.4456C30.7326 12.3664 30.3292 12.2915 30.0003 12.2915C29.6303 12.2915 29.2026 12.3699 28.7498 12.453C28.0483 12.5817 27.1752 12.7419 26.8475 12.4687C26.8038 12.4323 26.6708 12.3216 26.6708 11.9383C26.6708 11.1356 27.053 10.1756 27.6682 9.43281C28.3395 8.6222 29.1678 8.17576 30.0003 8.17576C30.8328 8.17576 31.661 8.6222 32.3324 9.43281C32.9476 10.1756 33.3297 11.1356 33.3297 11.9383C33.3298 12.311 33.1953 12.4229 33.1511 12.4596Z" fill="white"/>
<path d="M32.9558 3.68529C32.6604 3.24975 32.2374 3 31.7953 3C31.3531 3 30.9301 3.2498 30.6347 3.68529C30.3633 4.0854 30.2139 4.61082 30.2139 5.16479C30.2139 5.71876 30.3633 6.24419 30.6347 6.64429C30.9301 7.07981 31.3531 7.32961 31.7953 7.32961C32.2374 7.32961 32.6604 7.07981 32.9558 6.64429C33.2272 6.24419 33.3766 5.71876 33.3766 5.16479C33.3766 4.61082 33.2272 4.08537 32.9558 3.68529ZM32.3739 6.24963C32.2785 6.39037 32.0763 6.6265 31.7953 6.6265C31.5142 6.6265 31.3121 6.39039 31.2166 6.24963C31.0262 5.96889 30.917 5.57347 30.917 5.16479C30.917 4.75609 31.0262 4.36069 31.2166 4.07996C31.312 3.93922 31.5142 3.70308 31.7953 3.70308C32.0763 3.70308 32.2785 3.93919 32.3739 4.07996C32.5643 4.36069 32.6735 4.75611 32.6735 5.16479C32.6735 5.57347 32.5643 5.96889 32.3739 6.24963Z" fill="white"/>
<path d="M29.365 3.68532C29.0696 3.24977 28.6466 3 28.2044 3C27.7623 3 27.3393 3.2498 27.0439 3.68532C26.7725 4.08542 26.623 4.61084 26.623 5.16482C26.623 5.71879 26.7725 6.24421 27.0439 6.64431C27.3393 7.07986 27.7623 7.32965 28.2044 7.32965C28.6466 7.32965 29.0696 7.07986 29.365 6.64431C29.6364 6.24421 29.7858 5.71881 29.7858 5.16482C29.7858 4.61084 29.6364 4.0854 29.365 3.68532ZM28.7831 6.24967C28.6876 6.39042 28.4855 6.62655 28.2044 6.62655C27.9233 6.62655 27.7212 6.39042 27.6257 6.24967C27.4353 5.96894 27.3261 5.57352 27.3261 5.16484C27.3261 4.75613 27.4353 4.36074 27.6257 4.08001C27.7212 3.93926 27.9233 3.70313 28.2044 3.70313C28.4855 3.70313 28.6876 3.93924 28.7831 4.08001C28.9735 4.36074 29.0827 4.75616 29.0827 5.16484C29.0827 5.57352 28.9735 5.96894 28.7831 6.24967Z" fill="white"/>
<path d="M35.9298 7.0833C35.8107 6.67821 35.5554 6.38385 35.211 6.2545C34.9339 6.15042 34.6211 6.16806 34.3302 6.30421C33.9293 6.49181 33.6016 6.87919 33.4312 7.36699C33.292 7.76562 33.2746 8.18696 33.3823 8.55345C33.5014 8.95855 33.7567 9.2529 34.1011 9.38226C34.2203 9.42702 34.346 9.44926 34.4738 9.44926C34.6432 9.44926 34.8161 9.41015 34.982 9.33255C35.3829 9.14495 35.7105 8.75757 35.8809 8.26979V8.26977C36.0202 7.87116 36.0375 7.4498 35.9298 7.0833ZM35.2171 8.0379C35.1104 8.34355 34.911 8.58945 34.6839 8.69572C34.6004 8.73477 34.4744 8.7714 34.3483 8.72403C34.0439 8.60968 33.9255 8.08388 34.0949 7.59886C34.2017 7.29321 34.4011 7.0473 34.6282 6.94101C34.6835 6.91512 34.7575 6.8903 34.8379 6.8903C34.8788 6.8903 34.9213 6.89672 34.9638 6.91268C35.2682 7.02705 35.3866 7.55285 35.2171 8.0379Z" fill="white"/>
<path d="M26.5684 7.36696C26.398 6.87915 26.0703 6.4918 25.6695 6.3042C25.3785 6.16805 25.0657 6.15043 24.7886 6.25449C24.4442 6.38387 24.1889 6.67822 24.0699 7.08329C23.9621 7.44979 23.9795 7.87115 24.1187 8.26975V8.26977C24.2892 8.75758 24.6168 9.14493 25.0177 9.33253C25.1835 9.41013 25.3565 9.44925 25.5259 9.44925C25.6536 9.44925 25.7794 9.42698 25.8986 9.38224C26.243 9.25286 26.4982 8.95851 26.6173 8.55344C26.725 8.18697 26.7077 7.76561 26.5684 7.36696ZM25.6513 8.72404C25.5252 8.77141 25.3992 8.73477 25.3157 8.69573C25.0886 8.58946 24.8893 8.34355 24.7825 8.0379V8.03793C24.6131 7.55289 24.7314 7.02711 25.0359 6.91274C25.1619 6.86537 25.288 6.902 25.3715 6.94105C25.5986 7.04734 25.7979 7.29325 25.9047 7.59887C26.0741 8.08391 25.9557 8.60969 25.6513 8.72404Z" fill="white"/>
</svg>
